<svg width="148" height="60" viewBox="0 0 148 60" fill="none" xmlns="http://www.w3.org/2000/svg">
<path d="M18.618 59L34.5 27.2361L44.382 47L38.382 59H18.618Z" stroke="#F85B27" stroke-width="2"/>
<path d="M35.618 25L47 2.23607L75.382 59H52.618L35.618 25Z" stroke="#FFD271" stroke-width="2"/>
<path d="M89.618 59L105.5 27.2361L115.382 47L109.382 59H89.618Z" stroke="#F85B27" stroke-width="2"/>
<path d="M106.618 25L118 2.23607L146.382 59H123.618L106.618 25Z" stroke="#FFD271" stroke-width="2"/>
<path d="M74.382 1L80.382 13L70.5 32.7639L54.618 1H74.382Z" stroke="#F85B27" stroke-width="2"/>
<path d="M88.618 1H111.382L83 57.7639L71.618 35L88.618 1Z" stroke="#FFD271" stroke-width="2"/>
<path d="M43.8823 48L38.3823 59H1V1H17V47V48H18L43.8823 48Z" stroke="#FFD271" stroke-width="2"/>
</svg>
