<svg width="148" height="60" viewBox="0 0 148 60" fill="none" xmlns="http://www.w3.org/2000/svg">
<path fill-rule="evenodd" clip-rule="evenodd" d="M45.5 47L34.5 25L17 60H39L45.5 47Z" fill="#F85B27"/>
<path fill-rule="evenodd" clip-rule="evenodd" d="M45.5 47L34.5 25L17 60H39L45.5 47Z" fill="#F85B27"/>
<path fill-rule="evenodd" clip-rule="evenodd" d="M77 60L47 0L34.5 25L52 60H77Z" fill="#FFD271"/>
<path fill-rule="evenodd" clip-rule="evenodd" d="M116.5 47L105.5 25L88 60H110L116.5 47Z" fill="#F85B27"/>
<path fill-rule="evenodd" clip-rule="evenodd" d="M116.5 47L105.5 25L88 60H110L116.5 47Z" fill="#F85B27"/>
<path fill-rule="evenodd" clip-rule="evenodd" d="M148 60L118 0L105.5 25L123 60H148Z" fill="#FFD271"/>
<path fill-rule="evenodd" clip-rule="evenodd" d="M81.5 13L70.5 35L53 0H75L81.5 13Z" fill="#F85B27"/>
<path fill-rule="evenodd" clip-rule="evenodd" d="M81.5 13L70.5 35L53 0H75L81.5 13Z" fill="#F85B27"/>
<path fill-rule="evenodd" clip-rule="evenodd" d="M113 0L83 60L70.5 35L88 0H113Z" fill="#FFD271"/>
<path fill-rule="evenodd" clip-rule="evenodd" d="M18 0H0V60H3.00098V60.0001L18 60H39.0003L45.5003 47L45.5006 47.0007V47H45.5003L18 47V0Z" fill="#FFD271"/>
</svg>
